<mxfile>
    <diagram id="K1PiYW7plfjryU15QX6y" name="Page-1">
        <mxGraphModel dx="717" dy="1126" grid="1" gridSize="10" guides="1" tooltips="1" connect="1" arrows="1" fold="1" page="1" pageScale="1" pageWidth="827" pageHeight="1169" math="0" shadow="0">
            <root>
                <mxCell id="0"/>
                <mxCell id="1" parent="0"/>
                <mxCell id="3" value="Questão 16" style="text;strokeColor=none;fillColor=none;html=1;fontSize=24;fontStyle=1;verticalAlign=middle;align=center;" parent="1" vertex="1">
                    <mxGeometry x="240" y="40" width="348" height="40" as="geometry"/>
                </mxCell>
                <mxCell id="4" value="&lt;h2&gt;&lt;span style=&quot;left: 260.536px ; top: 410.471px ; font-size: 20px ; font-family: sans-serif ; transform: scalex(0.947951)&quot; dir=&quot;ltr&quot;&gt;Modi&lt;/span&gt;&lt;span style=&quot;left: 623.996px ; top: 410.471px ; font-size: 20px ; font-family: sans-serif ; transform: scalex(1.1)&quot; dir=&quot;ltr&quot;&gt;fi&lt;/span&gt;&lt;span style=&quot;left: 634.996px ; top: 410.471px ; font-size: 20px ; font-family: sans-serif ; transform: scalex(0.943238)&quot; dir=&quot;ltr&quot;&gt;que as cardinalida-&lt;/span&gt;&lt;span style=&quot;left: 142.336px ; top: 436.471px ; font-size: 20px ; font-family: sans-serif ; transform: scalex(0.939612)&quot; dir=&quot;ltr&quot;&gt;des mínimas de forma a especi&lt;/span&gt;&lt;span style=&quot;left: 403.376px ; top: 436.471px ; font-size: 20px ; font-family: sans-serif ; transform: scalex(1.1)&quot; dir=&quot;ltr&quot;&gt;fi&lt;/span&gt;&lt;span style=&quot;left: 414.376px ; top: 436.471px ; font-size: 20px ; font-family: sans-serif ; transform: scalex(0.952466)&quot; dir=&quot;ltr&quot;&gt;car o seguinte:&lt;/span&gt;&lt;br&gt;&lt;/h2&gt;&lt;div&gt;&lt;span style=&quot;left: 414.376px ; top: 436.471px ; font-size: 20px ; font-family: sans-serif ; transform: scalex(0.952466)&quot; dir=&quot;ltr&quot;&gt;&lt;span style=&quot;left: 260.536px ; top: 410.471px ; transform: scalex(0.947951)&quot; dir=&quot;ltr&quot;&gt;Considere o exemplo da &lt;span class=&quot;highlight selected&quot;&gt;Figura.&lt;/span&gt;&amp;nbsp;Modi&lt;/span&gt;&lt;span style=&quot;left: 623.996px ; top: 410.471px ; transform: scalex(1.1)&quot; dir=&quot;ltr&quot;&gt;fi&lt;/span&gt;&lt;span style=&quot;left: 634.996px ; top: 410.471px ; transform: scalex(0.943238)&quot; dir=&quot;ltr&quot;&gt;que as cardinalida-&lt;/span&gt;&lt;span style=&quot;left: 142.336px ; top: 436.471px ; transform: scalex(0.939612)&quot; dir=&quot;ltr&quot;&gt;des mínimas de forma a especi&lt;/span&gt;&lt;span style=&quot;left: 403.376px ; top: 436.471px ; transform: scalex(1.1)&quot; dir=&quot;ltr&quot;&gt;fi&lt;/span&gt;&lt;span style=&quot;left: 414.376px ; top: 436.471px ; transform: scalex(0.952466)&quot; dir=&quot;ltr&quot;&gt;car o seguinte:&lt;/span&gt;&lt;/span&gt;&lt;/div&gt;&lt;div&gt;&lt;ul&gt;&lt;li&gt;&lt;span style=&quot;left: 414.376px ; top: 436.471px ; font-size: 20px ; font-family: sans-serif ; transform: scalex(0.952466)&quot; dir=&quot;ltr&quot;&gt;&lt;span style=&quot;left: 170.676px ; top: 485.151px ; transform: scalex(0.959176)&quot; dir=&quot;ltr&quot;&gt;Um curso não pode estar vazio, isto é, deve possuir ao menos uma disci&lt;/span&gt;&lt;span style=&quot;left: 170.676px ; top: 511.14px ; transform: scalex(0.953915)&quot; dir=&quot;ltr&quot;&gt;plina em seu currículo.&lt;/span&gt;&lt;/span&gt;&lt;/li&gt;&lt;li&gt;&lt;span style=&quot;left: 414.376px ; top: 436.471px ; font-size: 20px ; font-family: sans-serif ; transform: scalex(0.952466)&quot; dir=&quot;ltr&quot;&gt;&lt;span style=&quot;left: 170.676px ; top: 537.14px ; transform: scalex(0.948527)&quot; dir=&quot;ltr&quot;&gt;Um aluno, mesmo que não inscrito em algum curso, deve permanecer por &lt;/span&gt;&lt;span style=&quot;left: 170.676px ; top: 563.14px ; transform: scalex(0.973736)&quot; dir=&quot;ltr&quot;&gt;algum tempo no banco de dados.&lt;/span&gt;&lt;/span&gt;&lt;/li&gt;&lt;/ul&gt;&lt;/div&gt;" style="text;strokeColor=none;fillColor=none;align=left;verticalAlign=top;whiteSpace=wrap;rounded=0;html=1;" parent="1" vertex="1">
                    <mxGeometry x="40" y="520" width="720" height="240" as="geometry"/>
                </mxCell>
                <mxCell id="26" value="(1,1)" style="edgeStyle=orthogonalEdgeStyle;rounded=0;orthogonalLoop=1;jettySize=auto;html=1;endArrow=none;endFill=0;" parent="1" source="24" target="25" edge="1">
                    <mxGeometry relative="1" as="geometry"/>
                </mxCell>
                <mxCell id="24" value="DEPARTAMENTOS" style="rounded=0;whiteSpace=wrap;html=1;fontFamily=Helvetica;fontSize=12;fontColor=#000000;align=center;strokeColor=#000000;fillColor=#ffffff;" parent="1" vertex="1">
                    <mxGeometry x="160" y="250" width="120" height="40" as="geometry"/>
                </mxCell>
                <mxCell id="28" value="(0,n)" style="edgeStyle=orthogonalEdgeStyle;rounded=0;orthogonalLoop=1;jettySize=auto;html=1;endArrow=none;endFill=0;" parent="1" source="25" target="27" edge="1">
                    <mxGeometry relative="1" as="geometry"/>
                </mxCell>
                <mxCell id="25" value="RESPONSÁVEL" style="rhombus;whiteSpace=wrap;html=1;rounded=0;" parent="1" vertex="1">
                    <mxGeometry x="320" y="240" width="120" height="60" as="geometry"/>
                </mxCell>
                <mxCell id="33" value="liberada&lt;br&gt;(0,n)" style="edgeStyle=orthogonalEdgeStyle;rounded=0;orthogonalLoop=1;jettySize=auto;html=1;endArrow=none;endFill=0;entryX=0;entryY=1;entryDx=0;entryDy=0;exitX=0.25;exitY=0;exitDx=0;exitDy=0;" parent="1" source="27" target="32" edge="1">
                    <mxGeometry x="0.0909" y="-10" relative="1" as="geometry">
                        <mxPoint as="offset"/>
                    </mxGeometry>
                </mxCell>
                <mxCell id="34" value="liberadora&lt;br&gt;(0,n)" style="edgeStyle=orthogonalEdgeStyle;rounded=0;orthogonalLoop=1;jettySize=auto;html=1;exitX=0.75;exitY=0;exitDx=0;exitDy=0;entryX=1;entryY=1;entryDx=0;entryDy=0;endArrow=none;endFill=0;" parent="1" source="27" target="32" edge="1">
                    <mxGeometry relative="1" as="geometry"/>
                </mxCell>
                <mxCell id="36" value="(0,n)" style="edgeStyle=orthogonalEdgeStyle;rounded=0;orthogonalLoop=1;jettySize=auto;html=1;endArrow=none;endFill=0;labelPosition=right;verticalLabelPosition=middle;align=left;verticalAlign=middle;" parent="1" source="27" target="35" edge="1">
                    <mxGeometry relative="1" as="geometry"/>
                </mxCell>
                <mxCell id="27" value="DISCIPLINA" style="whiteSpace=wrap;html=1;rounded=0;" parent="1" vertex="1">
                    <mxGeometry x="480" y="250" width="120" height="40" as="geometry"/>
                </mxCell>
                <mxCell id="32" value="PRÉ-REQUIS" style="rhombus;whiteSpace=wrap;html=1;rounded=0;" parent="1" vertex="1">
                    <mxGeometry x="480" y="150" width="120" height="60" as="geometry"/>
                </mxCell>
                <mxCell id="38" value="(0,n)" style="edgeStyle=orthogonalEdgeStyle;rounded=0;orthogonalLoop=1;jettySize=auto;html=1;endArrow=none;endFill=0;labelPosition=right;verticalLabelPosition=middle;align=left;verticalAlign=middle;" parent="1" source="35" target="37" edge="1">
                    <mxGeometry relative="1" as="geometry"/>
                </mxCell>
                <mxCell id="35" value="DISC-CURSO" style="rhombus;whiteSpace=wrap;html=1;rounded=0;" parent="1" vertex="1">
                    <mxGeometry x="480" y="310" width="120" height="60" as="geometry"/>
                </mxCell>
                <mxCell id="42" value="(0,n)" style="edgeStyle=orthogonalEdgeStyle;rounded=0;orthogonalLoop=1;jettySize=auto;html=1;endArrow=none;endFill=0;" parent="1" source="44" target="41" edge="1">
                    <mxGeometry relative="1" as="geometry"/>
                </mxCell>
                <mxCell id="37" value="CURSO" style="whiteSpace=wrap;html=1;rounded=0;" parent="1" vertex="1">
                    <mxGeometry x="480" y="400" width="120" height="40" as="geometry"/>
                </mxCell>
                <mxCell id="41" value="ALUNO" style="whiteSpace=wrap;html=1;rounded=0;" parent="1" vertex="1">
                    <mxGeometry x="160" y="400" width="120" height="40" as="geometry"/>
                </mxCell>
                <mxCell id="44" value="INSCRIÇÃO" style="rhombus;whiteSpace=wrap;html=1;rounded=0;" parent="1" vertex="1">
                    <mxGeometry x="320" y="390" width="120" height="60" as="geometry"/>
                </mxCell>
                <mxCell id="45" value="(1,1)" style="edgeStyle=orthogonalEdgeStyle;rounded=0;orthogonalLoop=1;jettySize=auto;html=1;endArrow=none;endFill=0;" parent="1" source="37" target="44" edge="1">
                    <mxGeometry relative="1" as="geometry">
                        <mxPoint x="480" y="420" as="sourcePoint"/>
                        <mxPoint x="280" y="420" as="targetPoint"/>
                    </mxGeometry>
                </mxCell>
                <mxCell id="48" value="(1,1)" style="edgeStyle=orthogonalEdgeStyle;rounded=0;orthogonalLoop=1;jettySize=auto;html=1;endArrow=none;endFill=0;" parent="1" source="49" target="51" edge="1">
                    <mxGeometry relative="1" as="geometry"/>
                </mxCell>
                <mxCell id="49" value="DEPARTAMENTOS" style="rounded=0;whiteSpace=wrap;html=1;fontFamily=Helvetica;fontSize=12;fontColor=#000000;align=center;strokeColor=#000000;fillColor=#ffffff;" parent="1" vertex="1">
                    <mxGeometry x="160" y="900" width="120" height="40" as="geometry"/>
                </mxCell>
                <mxCell id="50" value="(0,n)" style="edgeStyle=orthogonalEdgeStyle;rounded=0;orthogonalLoop=1;jettySize=auto;html=1;endArrow=none;endFill=0;" parent="1" source="51" target="55" edge="1">
                    <mxGeometry relative="1" as="geometry"/>
                </mxCell>
                <mxCell id="51" value="RESPONSÁVEL" style="rhombus;whiteSpace=wrap;html=1;rounded=0;" parent="1" vertex="1">
                    <mxGeometry x="320" y="890" width="120" height="60" as="geometry"/>
                </mxCell>
                <mxCell id="52" value="liberada&lt;br&gt;(0,n)" style="edgeStyle=orthogonalEdgeStyle;rounded=0;orthogonalLoop=1;jettySize=auto;html=1;endArrow=none;endFill=0;entryX=0;entryY=1;entryDx=0;entryDy=0;exitX=0.25;exitY=0;exitDx=0;exitDy=0;" parent="1" source="55" target="56" edge="1">
                    <mxGeometry x="0.0909" y="-10" relative="1" as="geometry">
                        <mxPoint as="offset"/>
                    </mxGeometry>
                </mxCell>
                <mxCell id="53" value="liberadora&lt;br&gt;(0,n)" style="edgeStyle=orthogonalEdgeStyle;rounded=0;orthogonalLoop=1;jettySize=auto;html=1;exitX=0.75;exitY=0;exitDx=0;exitDy=0;entryX=1;entryY=1;entryDx=0;entryDy=0;endArrow=none;endFill=0;" parent="1" source="55" target="56" edge="1">
                    <mxGeometry relative="1" as="geometry"/>
                </mxCell>
                <mxCell id="54" value="(0,n)" style="edgeStyle=orthogonalEdgeStyle;rounded=0;orthogonalLoop=1;jettySize=auto;html=1;endArrow=none;endFill=0;labelPosition=right;verticalLabelPosition=middle;align=left;verticalAlign=middle;" parent="1" source="55" target="58" edge="1">
                    <mxGeometry relative="1" as="geometry"/>
                </mxCell>
                <mxCell id="55" value="DISCIPLINA" style="whiteSpace=wrap;html=1;rounded=0;" parent="1" vertex="1">
                    <mxGeometry x="480" y="900" width="120" height="40" as="geometry"/>
                </mxCell>
                <mxCell id="56" value="PRÉ-REQUIS" style="rhombus;whiteSpace=wrap;html=1;rounded=0;" parent="1" vertex="1">
                    <mxGeometry x="480" y="800" width="120" height="60" as="geometry"/>
                </mxCell>
                <mxCell id="57" value="(1,n)" style="edgeStyle=orthogonalEdgeStyle;rounded=0;orthogonalLoop=1;jettySize=auto;html=1;endArrow=none;endFill=0;labelPosition=right;verticalLabelPosition=middle;align=left;verticalAlign=middle;" parent="1" source="58" target="60" edge="1">
                    <mxGeometry relative="1" as="geometry"/>
                </mxCell>
                <mxCell id="58" value="DISC-CURSO" style="rhombus;whiteSpace=wrap;html=1;rounded=0;" parent="1" vertex="1">
                    <mxGeometry x="480" y="960" width="120" height="60" as="geometry"/>
                </mxCell>
                <mxCell id="59" value="(1,n)" style="edgeStyle=orthogonalEdgeStyle;rounded=0;orthogonalLoop=1;jettySize=auto;html=1;endArrow=none;endFill=0;" parent="1" source="62" target="61" edge="1">
                    <mxGeometry relative="1" as="geometry"/>
                </mxCell>
                <mxCell id="60" value="CURSO" style="whiteSpace=wrap;html=1;rounded=0;" parent="1" vertex="1">
                    <mxGeometry x="480" y="1050" width="120" height="40" as="geometry"/>
                </mxCell>
                <mxCell id="61" value="ALUNO" style="whiteSpace=wrap;html=1;rounded=0;" parent="1" vertex="1">
                    <mxGeometry x="160" y="1050" width="120" height="40" as="geometry"/>
                </mxCell>
                <mxCell id="62" value="INSCRIÇÃO" style="rhombus;whiteSpace=wrap;html=1;rounded=0;" parent="1" vertex="1">
                    <mxGeometry x="320" y="1040" width="120" height="60" as="geometry"/>
                </mxCell>
                <mxCell id="63" value="(1,1)" style="edgeStyle=orthogonalEdgeStyle;rounded=0;orthogonalLoop=1;jettySize=auto;html=1;endArrow=none;endFill=0;" parent="1" source="60" target="62" edge="1">
                    <mxGeometry relative="1" as="geometry">
                        <mxPoint x="480" y="1070" as="sourcePoint"/>
                        <mxPoint x="280" y="1070" as="targetPoint"/>
                    </mxGeometry>
                </mxCell>
                <mxCell id="6C8_iWwdzT0tDR54aiRL-64" style="edgeStyle=orthogonalEdgeStyle;rounded=0;orthogonalLoop=1;jettySize=auto;html=1;labelBackgroundColor=#ffffff;endArrow=none;endFill=0;strokeWidth=2;" edge="1" parent="1" source="6C8_iWwdzT0tDR54aiRL-63">
                    <mxGeometry relative="1" as="geometry">
                        <mxPoint x="580" y="1035" as="targetPoint"/>
                    </mxGeometry>
                </mxCell>
                <mxCell id="6C8_iWwdzT0tDR54aiRL-63" value="Alterado" style="strokeWidth=2;html=1;shape=mxgraph.flowchart.annotation_2;align=left;labelPosition=right;pointerEvents=1;" vertex="1" parent="1">
                    <mxGeometry x="620" y="1020" width="40" height="30" as="geometry"/>
                </mxCell>
                <mxCell id="6C8_iWwdzT0tDR54aiRL-67" style="edgeStyle=orthogonalEdgeStyle;rounded=0;orthogonalLoop=1;jettySize=auto;html=1;labelBackgroundColor=#ffffff;endArrow=none;endFill=0;strokeWidth=2;" edge="1" parent="1" source="6C8_iWwdzT0tDR54aiRL-65">
                    <mxGeometry relative="1" as="geometry">
                        <mxPoint x="300" y="1090" as="targetPoint"/>
                        <Array as="points">
                            <mxPoint x="300" y="1125"/>
                            <mxPoint x="300" y="1100"/>
                        </Array>
                    </mxGeometry>
                </mxCell>
                <mxCell id="6C8_iWwdzT0tDR54aiRL-65" value="Alterado;&lt;br&gt;Não sei se é necessário criar uma indicação para tempo de espera." style="strokeWidth=2;html=1;shape=mxgraph.flowchart.annotation_2;align=left;labelPosition=right;pointerEvents=1;" vertex="1" parent="1">
                    <mxGeometry x="330" y="1110" width="40" height="30" as="geometry"/>
                </mxCell>
            </root>
        </mxGraphModel>
    </diagram>
</mxfile>